<svg width="80" height="80" viewBox="0 0 646 646" fill="currentColor" xmlns="http://www.w3.org/2000/svg">
<path d="M108.167 6.46616H185.345V416.696C185.345 615.386 460.306 623.625 460.306 415.789C460.306 373.043 447.342 337.742 421.414 310.189C395.487 282.485 361.546 268.614 319.367 268.614C281.269 268.614 245.213 281.729 211.083 307.959V225.452C245.515 206.063 284.104 196.236 327.153 196.236C386.869 196.236 437.213 218.271 478.183 262.076C518.397 305.124 538.353 356.677 538.353 416.696C538.353 480.306 518.699 533.181 479.052 575.02C438.838 617.767 387.172 639.235 323.713 639.235C272.463 639.235 227.184 623.436 187.575 591.839C147.928 560.28 123.361 519.461 113.836 469.42C109.981 450.485 108.167 421.761 108.167 383.02V6.46616Z" fill="url(#paint0_linear_31_3415)"/>
<defs>
<linearGradient id="paint0_linear_31_3415" x1="431.241" y1="428.98" x2="148.525" y2="463.506" gradientUnits="userSpaceOnUse">
<stop stop-color="#A228B5"/>
<stop offset="1" stop-color="#FF007B"/>
</linearGradient>
</defs>
</svg>
